<svg width="1200" height="1200" viewBox="0 0 1200 1200" fill="none" xmlns="http://www.w3.org/2000/svg">
  <rect width="1200" height="1200" rx="72" fill="#0E2940"/>
  <rect x="36" y="36" width="1128" height="1128" rx="48" fill="url(#bgGlow)" stroke="rgba(255,255,255,0.08)"/>
  <g opacity="0.24">
    <path d="M154 204H340" stroke="#5FD6FF" stroke-width="3"/>
    <path d="M154 322H286" stroke="#5FD6FF" stroke-width="3"/>
    <path d="M154 440H324" stroke="#5FD6FF" stroke-width="3"/>
    <path d="M154 558H266" stroke="#5FD6FF" stroke-width="3"/>
    <path d="M154 676H338" stroke="#5FD6FF" stroke-width="3"/>
    <path d="M154 794H292" stroke="#5FD6FF" stroke-width="3"/>
    <path d="M154 912H344" stroke="#5FD6FF" stroke-width="3"/>
    <path d="M1046 204H860" stroke="#5FD6FF" stroke-width="3"/>
    <path d="M1046 322H914" stroke="#5FD6FF" stroke-width="3"/>
    <path d="M1046 440H876" stroke="#5FD6FF" stroke-width="3"/>
    <path d="M1046 558H934" stroke="#5FD6FF" stroke-width="3"/>
    <path d="M1046 676H862" stroke="#5FD6FF" stroke-width="3"/>
    <path d="M1046 794H908" stroke="#5FD6FF" stroke-width="3"/>
    <path d="M1046 912H856" stroke="#5FD6FF" stroke-width="3"/>
  </g>
  <g filter="url(#brainGlow)">
    <path d="M580 176C487 176 412 246 390 335C325 365 282 432 282 507C282 571 313 629 364 667C355 690 350 715 350 741C350 862 446 960 566 960H642C760 960 856 865 856 747C856 717 850 689 839 663C888 624 918 566 918 501C918 425 876 358 810 329C786 241 709 176 614 176H580Z" fill="url(#brainFill)"/>
    <path d="M580 176C487 176 412 246 390 335C325 365 282 432 282 507C282 571 313 629 364 667C355 690 350 715 350 741C350 862 446 960 566 960H642C760 960 856 865 856 747C856 717 850 689 839 663C888 624 918 566 918 501C918 425 876 358 810 329C786 241 709 176 614 176H580Z" stroke="#8BEAFF" stroke-width="8"/>
  </g>
  <g opacity="0.92" stroke="#B6F3FF" stroke-linecap="round" stroke-linejoin="round">
    <path d="M492 312L448 380L492 450L564 450L614 395L592 326L492 312Z" stroke-width="8"/>
    <path d="M674 314L614 395L654 472L744 468L790 392L742 324L674 314Z" stroke-width="8"/>
    <path d="M450 560L394 632L452 722L566 726L622 642L564 554L450 560Z" stroke-width="8"/>
    <path d="M650 520L596 600L648 706L768 716L818 610L760 520L650 520Z" stroke-width="8"/>
    <path d="M516 742L468 818L538 884L634 884L698 814L648 734L516 742Z" stroke-width="8"/>
    <path d="M596 232V958" stroke-width="7" opacity="0.52"/>
    <path d="M390 508H918" stroke-width="7" opacity="0.42"/>
    <path d="M446 380L514 380" stroke-width="7"/>
    <path d="M616 392L744 392" stroke-width="7"/>
    <path d="M424 640L594 640" stroke-width="7"/>
    <path d="M620 612L814 612" stroke-width="7"/>
    <path d="M496 812L676 812" stroke-width="7"/>
  </g>
  <g fill="#EAFBFF">
    <circle cx="448" cy="380" r="12"/>
    <circle cx="514" cy="380" r="12"/>
    <circle cx="614" cy="395" r="12"/>
    <circle cx="744" cy="392" r="12"/>
    <circle cx="394" cy="632" r="12"/>
    <circle cx="452" cy="722" r="12"/>
    <circle cx="566" cy="726" r="12"/>
    <circle cx="622" cy="642" r="12"/>
    <circle cx="596" cy="600" r="12"/>
    <circle cx="648" cy="706" r="12"/>
    <circle cx="768" cy="716" r="12"/>
    <circle cx="818" cy="610" r="12"/>
    <circle cx="468" cy="818" r="12"/>
    <circle cx="538" cy="884" r="12"/>
    <circle cx="634" cy="884" r="12"/>
    <circle cx="698" cy="814" r="12"/>
  </g>
  <g opacity="0.9">
    <path d="M272 510H182" stroke="#69E2FF" stroke-width="7" stroke-linecap="round"/>
    <path d="M282 420H208" stroke="#69E2FF" stroke-width="7" stroke-linecap="round"/>
    <path d="M308 335H238" stroke="#69E2FF" stroke-width="7" stroke-linecap="round"/>
    <path d="M348 765H244" stroke="#69E2FF" stroke-width="7" stroke-linecap="round"/>
    <path d="M904 502H1006" stroke="#69E2FF" stroke-width="7" stroke-linecap="round"/>
    <path d="M894 416H970" stroke="#69E2FF" stroke-width="7" stroke-linecap="round"/>
    <path d="M866 336H946" stroke="#69E2FF" stroke-width="7" stroke-linecap="round"/>
    <path d="M840 754H958" stroke="#69E2FF" stroke-width="7" stroke-linecap="round"/>
  </g>
  <defs>
    <linearGradient id="brainFill" x1="600" y1="176" x2="600" y2="960" gradientUnits="userSpaceOnUse">
      <stop stop-color="#2AC8FF"/>
      <stop offset="0.5" stop-color="#2187FF"/>
      <stop offset="1" stop-color="#143F74"/>
    </linearGradient>
    <radialGradient id="bgGlow" cx="0" cy="0" r="1" gradientUnits="userSpaceOnUse" gradientTransform="translate(600 490) rotate(90) scale(640)">
      <stop stop-color="#123E67"/>
      <stop offset="0.48" stop-color="#0F2F4E"/>
      <stop offset="1" stop-color="#0A1F34"/>
    </radialGradient>
    <filter id="brainGlow" x="218" y="112" width="764" height="912" filterUnits="userSpaceOnUse" color-interpolation-filters="sRGB">
      <feFlood flood-opacity="0" result="BackgroundImageFix"/>
      <feBlend mode="normal" in="SourceGraphic" in2="BackgroundImageFix" result="shape"/>
      <feGaussianBlur stdDeviation="22" result="effect1_foregroundBlur_0_1"/>
    </filter>
  </defs>
</svg>
